<svg width="560" height="44" viewBox="0 0 560 44" fill="none" xmlns="http://www.w3.org/2000/svg">
<rect width="560" height="44" rx="10" fill="#F6F6F6"/>
<path d="M25.9659 29.2273C24.9432 29.2273 24.0625 28.9858 23.3239 28.5028C22.5852 28.0199 22.017 27.3546 21.6193 26.5071C21.2216 25.6596 21.0227 24.6913 21.0227 23.6023C21.0227 22.4943 21.2263 21.5166 21.6335 20.669C22.0455 19.8168 22.6184 19.1515 23.3523 18.6733C24.0909 18.1903 24.9527 17.9489 25.9375 17.9489C26.7045 17.9489 27.3958 18.0909 28.0114 18.375C28.6269 18.6591 29.1312 19.0568 29.5241 19.5682C29.9171 20.0795 30.161 20.6761 30.2557 21.358H28.5795C28.4517 20.8608 28.1676 20.4205 27.7273 20.0369C27.2917 19.6487 26.7045 19.4545 25.9659 19.4545C25.3125 19.4545 24.7396 19.625 24.2472 19.9659C23.7595 20.3021 23.3783 20.7779 23.1037 21.3935C22.8338 22.0043 22.6989 22.7216 22.6989 23.5455C22.6989 24.3883 22.8314 25.1222 23.0966 25.7472C23.3665 26.3722 23.7453 26.8575 24.233 27.2031C24.7254 27.5488 25.303 27.7216 25.9659 27.7216C26.4015 27.7216 26.7969 27.6458 27.152 27.4943C27.5071 27.3428 27.8078 27.125 28.054 26.8409C28.3002 26.5568 28.4754 26.2159 28.5795 25.8182H30.2557C30.161 26.4621 29.9266 27.0421 29.5526 27.5582C29.1832 28.0696 28.6932 28.4768 28.0824 28.7798C27.4763 29.0781 26.7708 29.2273 25.9659 29.2273ZM38.6719 26.7273L42.4787 18.0909H44.0696L39.3537 29H37.9901L33.3594 18.0909H34.9219L38.6719 26.7273ZM34.3821 18.0909V29H32.706V18.0909H34.3821ZM42.9616 29V18.0909H44.6378V29H42.9616ZM52.2798 29.2273C51.2287 29.2273 50.322 28.9953 49.5597 28.5312C48.8021 28.0625 48.2173 27.4091 47.8054 26.571C47.3982 25.7282 47.1946 24.7481 47.1946 23.6307C47.1946 22.5133 47.3982 21.5284 47.8054 20.6761C48.2173 19.8191 48.7902 19.1515 49.5241 18.6733C50.2628 18.1903 51.1245 17.9489 52.1094 17.9489C52.6776 17.9489 53.2386 18.0436 53.7926 18.233C54.3466 18.4223 54.8509 18.7301 55.3054 19.1562C55.7599 19.5777 56.1222 20.1364 56.392 20.8324C56.6619 21.5284 56.7969 22.3854 56.7969 23.4034V24.1136H48.3878V22.6648H55.0923C55.0923 22.0492 54.9692 21.5 54.723 21.017C54.4815 20.5341 54.1359 20.1529 53.6861 19.8736C53.241 19.5942 52.7154 19.4545 52.1094 19.4545C51.4418 19.4545 50.8641 19.6203 50.3764 19.9517C49.8935 20.2784 49.5218 20.7045 49.2614 21.2301C49.0009 21.7557 48.8707 22.3191 48.8707 22.9205V23.8864C48.8707 24.7102 49.0128 25.4086 49.2969 25.9815C49.5857 26.5497 49.9858 26.983 50.4972 27.2812C51.0085 27.5748 51.6027 27.7216 52.2798 27.7216C52.7202 27.7216 53.1179 27.66 53.473 27.5369C53.8329 27.4091 54.143 27.2197 54.4034 26.9688C54.6638 26.7131 54.8651 26.3958 55.0071 26.017L56.6264 26.4716C56.456 27.0208 56.1695 27.5038 55.767 27.9205C55.3646 28.3324 54.8674 28.6544 54.2756 28.8864C53.6837 29.1136 53.0185 29.2273 52.2798 29.2273ZM58.331 19.6534V18.0909H67.1946V19.6534H63.6151V29H61.9389V19.6534H58.331ZM72.2834 29.2557C71.5921 29.2557 70.9647 29.1255 70.4013 28.8651C69.8378 28.5999 69.3904 28.2188 69.0589 27.7216C68.7275 27.2197 68.5618 26.6136 68.5618 25.9034C68.5618 25.2784 68.6849 24.7718 68.9311 24.3835C69.1773 23.9905 69.5064 23.6828 69.9183 23.4602C70.3303 23.2377 70.7848 23.072 71.282 22.9631C71.7839 22.8494 72.2881 22.7595 72.7947 22.6932C73.4576 22.608 73.995 22.544 74.407 22.5014C74.8236 22.4541 75.1267 22.3759 75.3161 22.267C75.5102 22.1581 75.6072 21.9687 75.6072 21.6989V21.642C75.6072 20.9413 75.4155 20.3968 75.032 20.0085C74.6532 19.6203 74.0779 19.4261 73.3061 19.4261C72.5059 19.4261 71.8786 19.6013 71.424 19.9517C70.9695 20.3021 70.6499 20.6761 70.4652 21.0739L68.8743 20.5057C69.1584 19.8428 69.5372 19.3267 70.0107 18.9574C70.4889 18.5833 71.0097 18.3229 71.5732 18.1761C72.1413 18.0246 72.7 17.9489 73.2493 17.9489C73.5997 17.9489 74.0021 17.9915 74.4567 18.0767C74.916 18.1572 75.3587 18.3253 75.7848 18.581C76.2157 18.8366 76.5732 19.2225 76.8572 19.7386C77.1413 20.2547 77.2834 20.946 77.2834 21.8125V29H75.6072V27.5227H75.522C75.4084 27.7595 75.219 28.0128 74.9538 28.2827C74.6887 28.5526 74.3359 28.7822 73.8956 28.9716C73.4553 29.161 72.9179 29.2557 72.2834 29.2557ZM72.5391 27.75C73.2019 27.75 73.7607 27.6198 74.2152 27.3594C74.6745 27.099 75.0201 26.7628 75.2521 26.3509C75.4889 25.9389 75.6072 25.5057 75.6072 25.0511V23.517C75.5362 23.6023 75.38 23.6804 75.1385 23.7514C74.9018 23.8177 74.6271 23.8769 74.3146 23.929C74.0069 23.9763 73.7062 24.0189 73.4126 24.0568C73.1238 24.09 72.8894 24.1184 72.7095 24.142C72.2739 24.1989 71.8667 24.2912 71.4879 24.419C71.1139 24.5421 70.8108 24.7292 70.5788 24.9801C70.3516 25.2263 70.2379 25.5625 70.2379 25.9886C70.2379 26.571 70.4534 27.0114 70.8842 27.3097C71.3198 27.6032 71.8714 27.75 72.5391 27.75ZM87.8711 29V30.5625H78.7802V29H87.8711ZM97.0366 18.0909V19.6534H91.9798V29H90.3036V18.0909H97.0366ZM103.349 29.2273C102.364 29.2273 101.5 28.9929 100.756 28.5241C100.018 28.0554 99.4401 27.3996 99.0234 26.5568C98.6115 25.714 98.4055 24.7292 98.4055 23.6023C98.4055 22.4659 98.6115 21.474 99.0234 20.6264C99.4401 19.7789 100.018 19.1207 100.756 18.652C101.5 18.1832 102.364 17.9489 103.349 17.9489C104.334 17.9489 105.195 18.1832 105.934 18.652C106.677 19.1207 107.255 19.7789 107.667 20.6264C108.084 21.474 108.292 22.4659 108.292 23.6023C108.292 24.7292 108.084 25.714 107.667 26.5568C107.255 27.3996 106.677 28.0554 105.934 28.5241C105.195 28.9929 104.334 29.2273 103.349 29.2273ZM103.349 27.7216C104.097 27.7216 104.712 27.5298 105.195 27.1463C105.678 26.7628 106.036 26.2585 106.268 25.6335C106.5 25.0085 106.616 24.3314 106.616 23.6023C106.616 22.8731 106.5 22.1937 106.268 21.5639C106.036 20.9342 105.678 20.4252 105.195 20.0369C104.712 19.6487 104.097 19.4545 103.349 19.4545C102.601 19.4545 101.985 19.6487 101.502 20.0369C101.019 20.4252 100.662 20.9342 100.43 21.5639C100.198 22.1937 100.082 22.8731 100.082 23.6023C100.082 24.3314 100.198 25.0085 100.43 25.6335C100.662 26.2585 101.019 26.7628 101.502 27.1463C101.985 27.5298 102.601 27.7216 103.349 27.7216ZM115.282 29.2273C114.26 29.2273 113.379 28.9858 112.64 28.5028C111.902 28.0199 111.333 27.3546 110.936 26.5071C110.538 25.6596 110.339 24.6913 110.339 23.6023C110.339 22.4943 110.543 21.5166 110.95 20.669C111.362 19.8168 111.935 19.1515 112.669 18.6733C113.407 18.1903 114.269 17.9489 115.254 17.9489C116.021 17.9489 116.712 18.0909 117.328 18.375C117.943 18.6591 118.448 19.0568 118.841 19.5682C119.234 20.0795 119.477 20.6761 119.572 21.358H117.896C117.768 20.8608 117.484 20.4205 117.044 20.0369C116.608 19.6487 116.021 19.4545 115.282 19.4545C114.629 19.4545 114.056 19.625 113.564 19.9659C113.076 20.3021 112.695 20.7779 112.42 21.3935C112.15 22.0043 112.015 22.7216 112.015 23.5455C112.015 24.3883 112.148 25.1222 112.413 25.7472C112.683 26.3722 113.062 26.8575 113.549 27.2031C114.042 27.5488 114.619 27.7216 115.282 27.7216C115.718 27.7216 116.113 27.6458 116.468 27.4943C116.824 27.3428 117.124 27.125 117.37 26.8409C117.617 26.5568 117.792 26.2159 117.896 25.8182H119.572C119.477 26.4621 119.243 27.0421 118.869 27.5582C118.5 28.0696 118.01 28.4768 117.399 28.7798C116.793 29.0781 116.087 29.2273 115.282 29.2273ZM123.244 29.1136C122.894 29.1136 122.593 28.9882 122.342 28.7372C122.091 28.4863 121.966 28.1856 121.966 27.8352C121.966 27.4848 122.091 27.1842 122.342 26.9332C122.593 26.6823 122.894 26.5568 123.244 26.5568C123.594 26.5568 123.895 26.6823 124.146 26.9332C124.397 27.1842 124.522 27.4848 124.522 27.8352C124.522 28.0672 124.463 28.2803 124.345 28.4744C124.231 28.6686 124.077 28.8248 123.883 28.9432C123.694 29.0568 123.481 29.1136 123.244 29.1136ZM128.78 18.0909L131.394 22.5511L134.007 18.0909H135.939L132.417 23.5455L135.939 29H134.007L131.394 24.767L128.78 29H126.848L130.314 23.5455L126.848 18.0909H128.78ZM140.007 14.4545V29H138.331V14.4545H140.007ZM147.509 29.2273C146.486 29.2273 145.605 28.9858 144.867 28.5028C144.128 28.0199 143.56 27.3546 143.162 26.5071C142.765 25.6596 142.566 24.6913 142.566 23.6023C142.566 22.4943 142.769 21.5166 143.176 20.669C143.588 19.8168 144.161 19.1515 144.895 18.6733C145.634 18.1903 146.496 17.9489 147.48 17.9489C148.248 17.9489 148.939 18.0909 149.554 18.375C150.17 18.6591 150.674 19.0568 151.067 19.5682C151.46 20.0795 151.704 20.6761 151.799 21.358H150.123C149.995 20.8608 149.711 20.4205 149.27 20.0369C148.835 19.6487 148.248 19.4545 147.509 19.4545C146.855 19.4545 146.283 19.625 145.79 19.9659C145.302 20.3021 144.921 20.7779 144.647 21.3935C144.377 22.0043 144.242 22.7216 144.242 23.5455C144.242 24.3883 144.374 25.1222 144.64 25.7472C144.909 26.3722 145.288 26.8575 145.776 27.2031C146.268 27.5488 146.846 27.7216 147.509 27.7216C147.944 27.7216 148.34 27.6458 148.695 27.4943C149.05 27.3428 149.351 27.125 149.597 26.8409C149.843 26.5568 150.018 26.2159 150.123 25.8182H151.799C151.704 26.4621 151.47 27.0421 151.096 27.5582C150.726 28.0696 150.236 28.4768 149.625 28.7798C149.019 29.0781 148.314 29.2273 147.509 29.2273ZM155.382 18.0909L157.995 22.5511L160.609 18.0909H162.541L159.018 23.5455L162.541 29H160.609L157.995 24.767L155.382 29H153.45L156.916 23.5455L153.45 18.0909H155.382Z" fill="#101010" fill-opacity="0.5"/>
<path d="M398 32.5H410V34H396.5V31H393.5V10H403.566L408.277 14.7109L413 19.4336V20.5H405.5V14.5H398V32.5ZM407 19H410.434L407 15.5664V19ZM396.5 29.5V13H404.434L402.934 11.5H395V29.5H396.5ZM412.25 24.6953L415.965 28.4102L414.91 29.4648L413 27.5664V34H411.5V27.5664L409.59 29.4648L408.535 28.4102L412.25 24.6953ZM416 22V23.5H408.5V22H416Z" fill="#101010" fill-opacity="0.2"/>
<path d="M431.136 28.1591C430.386 28.1591 429.718 28.0303 429.131 27.7727C428.547 27.5152 428.083 27.1572 427.739 26.6989C427.398 26.2367 427.212 25.7008 427.182 25.0909H428.614C428.644 25.4659 428.773 25.7898 429 26.0625C429.227 26.3314 429.525 26.5398 429.892 26.6875C430.259 26.8352 430.667 26.9091 431.114 26.9091C431.614 26.9091 432.057 26.822 432.443 26.6477C432.83 26.4735 433.133 26.2311 433.352 25.9205C433.572 25.6098 433.682 25.25 433.682 24.8409C433.682 24.4129 433.576 24.036 433.364 23.7102C433.152 23.3807 432.841 23.1231 432.432 22.9375C432.023 22.7519 431.523 22.6591 430.932 22.6591H430V21.4091H430.932C431.394 21.4091 431.799 21.3258 432.148 21.1591C432.5 20.9924 432.775 20.7576 432.972 20.4545C433.172 20.1515 433.273 19.7955 433.273 19.3864C433.273 18.9924 433.186 18.6496 433.011 18.358C432.837 18.0663 432.591 17.839 432.273 17.6761C431.958 17.5133 431.587 17.4318 431.159 17.4318C430.758 17.4318 430.379 17.5057 430.023 17.6534C429.67 17.7973 429.383 18.0076 429.159 18.2841C428.936 18.5568 428.814 18.8864 428.795 19.2727H427.432C427.455 18.6629 427.638 18.1288 427.983 17.6705C428.328 17.2083 428.778 16.8485 429.335 16.5909C429.896 16.3333 430.511 16.2045 431.182 16.2045C431.902 16.2045 432.519 16.3504 433.034 16.642C433.549 16.9299 433.945 17.3106 434.222 17.7841C434.498 18.2576 434.636 18.7689 434.636 19.3182C434.636 19.9735 434.464 20.5322 434.119 20.9943C433.778 21.4564 433.314 21.7765 432.727 21.9545V22.0455C433.462 22.1667 434.036 22.4792 434.449 22.983C434.862 23.483 435.068 24.1023 435.068 24.8409C435.068 25.4735 434.896 26.0417 434.551 26.5455C434.21 27.0455 433.744 27.4394 433.153 27.7273C432.563 28.0152 431.89 28.1591 431.136 28.1591ZM439.983 28.2045C439.43 28.2045 438.928 28.1004 438.477 27.892C438.027 27.6799 437.669 27.375 437.403 26.9773C437.138 26.5758 437.006 26.0909 437.006 25.5227C437.006 25.0227 437.104 24.6174 437.301 24.3068C437.498 23.9924 437.761 23.7462 438.091 23.5682C438.42 23.3902 438.784 23.2576 439.182 23.1705C439.583 23.0795 439.987 23.0076 440.392 22.9545C440.922 22.8864 441.352 22.8352 441.682 22.8011C442.015 22.7633 442.258 22.7008 442.409 22.6136C442.564 22.5265 442.642 22.375 442.642 22.1591V22.1136C442.642 21.553 442.489 21.1174 442.182 20.8068C441.879 20.4962 441.419 20.3409 440.801 20.3409C440.161 20.3409 439.659 20.4811 439.295 20.7614C438.932 21.0417 438.676 21.3409 438.528 21.6591L437.256 21.2045C437.483 20.6742 437.786 20.2614 438.165 19.9659C438.547 19.6667 438.964 19.4583 439.415 19.3409C439.869 19.2197 440.316 19.1591 440.756 19.1591C441.036 19.1591 441.358 19.1932 441.722 19.2614C442.089 19.3258 442.443 19.4602 442.784 19.6648C443.129 19.8693 443.415 20.178 443.642 20.5909C443.869 21.0038 443.983 21.5568 443.983 22.25V28H442.642V26.8182H442.574C442.483 27.0076 442.331 27.2102 442.119 27.4261C441.907 27.642 441.625 27.8258 441.273 27.9773C440.92 28.1288 440.491 28.2045 439.983 28.2045ZM440.188 27C440.718 27 441.165 26.8958 441.528 26.6875C441.896 26.4792 442.172 26.2102 442.358 25.8807C442.547 25.5511 442.642 25.2045 442.642 24.8409V23.6136C442.585 23.6818 442.46 23.7443 442.267 23.8011C442.078 23.8542 441.858 23.9015 441.608 23.9432C441.362 23.9811 441.121 24.0152 440.886 24.0455C440.655 24.072 440.468 24.0947 440.324 24.1136C439.975 24.1591 439.65 24.233 439.347 24.3352C439.047 24.4337 438.805 24.5833 438.619 24.7841C438.438 24.9811 438.347 25.25 438.347 25.5909C438.347 26.0568 438.519 26.4091 438.864 26.6477C439.212 26.8826 439.653 27 440.188 27ZM451.817 19.2727V20.5227H447.771V28H446.43V19.2727H451.817ZM453.774 31.2727V19.2727H455.07V20.6591H455.229C455.327 20.5076 455.464 20.3144 455.638 20.0795C455.816 19.8409 456.07 19.6288 456.399 19.4432C456.732 19.2538 457.183 19.1591 457.751 19.1591C458.486 19.1591 459.134 19.3428 459.695 19.7102C460.255 20.0777 460.693 20.5985 461.007 21.2727C461.321 21.947 461.479 22.7424 461.479 23.6591C461.479 24.5833 461.321 25.3845 461.007 26.0625C460.693 26.7367 460.257 27.2595 459.7 27.6307C459.143 27.9981 458.501 28.1818 457.774 28.1818C457.214 28.1818 456.765 28.089 456.428 27.9034C456.09 27.714 455.831 27.5 455.649 27.2614C455.467 27.0189 455.327 26.8182 455.229 26.6591H455.115V31.2727H453.774ZM455.092 23.6364C455.092 24.2955 455.189 24.8769 455.382 25.3807C455.575 25.8807 455.857 26.2727 456.229 26.5568C456.6 26.8371 457.054 26.9773 457.592 26.9773C458.153 26.9773 458.621 26.8295 458.996 26.5341C459.375 26.2348 459.659 25.8333 459.848 25.3295C460.041 24.822 460.138 24.2576 460.138 23.6364C460.138 23.0227 460.043 22.4697 459.854 21.9773C459.668 21.4811 459.386 21.089 459.007 20.8011C458.632 20.5095 458.161 20.3636 457.592 20.3636C457.047 20.3636 456.589 20.5019 456.217 20.7784C455.846 21.0511 455.566 21.4337 455.376 21.9261C455.187 22.4148 455.092 22.9848 455.092 23.6364ZM464.075 31.2727C463.848 31.2727 463.645 31.2538 463.467 31.2159C463.289 31.1818 463.166 31.1477 463.098 31.1136L463.439 29.9318C463.765 30.0152 464.053 30.0455 464.303 30.0227C464.553 30 464.774 29.8883 464.967 29.6875C465.164 29.4905 465.344 29.1705 465.507 28.7273L465.757 28.0455L462.53 19.2727H463.984L466.393 26.2273H466.484L468.893 19.2727H470.348L466.643 29.2727C466.477 29.7235 466.27 30.0966 466.024 30.392C465.778 30.6913 465.492 30.9129 465.166 31.0568C464.844 31.2008 464.481 31.2727 464.075 31.2727ZM471.572 25.7727H473.004C473.035 26.1667 473.213 26.4659 473.538 26.6705C473.868 26.875 474.296 26.9773 474.822 26.9773C475.36 26.9773 475.821 26.8674 476.203 26.6477C476.586 26.4242 476.777 26.0644 476.777 25.5682C476.777 25.2765 476.705 25.0227 476.561 24.8068C476.417 24.5871 476.214 24.4167 475.953 24.2955C475.692 24.1742 475.383 24.1136 475.027 24.1136H473.527V22.9091H475.027C475.561 22.9091 475.955 22.7879 476.209 22.5455C476.466 22.303 476.595 22 476.595 21.6364C476.595 21.2462 476.457 20.9337 476.18 20.6989C475.904 20.4602 475.512 20.3409 475.004 20.3409C474.493 20.3409 474.067 20.4564 473.726 20.6875C473.385 20.9148 473.205 21.2083 473.186 21.5682H471.777C471.792 21.0985 471.936 20.6837 472.209 20.3239C472.482 19.9602 472.853 19.6761 473.322 19.4716C473.792 19.2633 474.33 19.1591 474.936 19.1591C475.55 19.1591 476.082 19.267 476.533 19.483C476.987 19.6951 477.338 19.9848 477.584 20.3523C477.834 20.7159 477.959 21.1288 477.959 21.5909C477.959 22.0833 477.821 22.4811 477.544 22.7841C477.268 23.0871 476.921 23.303 476.504 23.4318V23.5227C476.834 23.5455 477.12 23.6515 477.362 23.8409C477.608 24.0265 477.8 24.2708 477.936 24.5739C478.072 24.8731 478.141 25.2045 478.141 25.5682C478.141 26.0985 477.999 26.5606 477.714 26.9545C477.43 27.3447 477.04 27.6477 476.544 27.8636C476.048 28.0758 475.482 28.1818 474.845 28.1818C474.228 28.1818 473.675 28.0814 473.186 27.8807C472.697 27.6761 472.309 27.3939 472.021 27.0341C471.737 26.6705 471.588 26.25 471.572 25.7727ZM481.365 26.0227L485.57 19.2727H487.115V28H485.774V21.25L481.592 28H480.024V19.2727H481.365V26.0227ZM488.384 20.5227V19.2727H495.474V20.5227H492.611V28H491.27V20.5227H488.384ZM498.589 22.4318H501.089C502.112 22.4318 502.894 22.6913 503.436 23.2102C503.978 23.7292 504.249 24.3864 504.249 25.1818C504.249 25.7045 504.127 26.1799 503.885 26.608C503.643 27.0322 503.286 27.3712 502.817 27.625C502.347 27.875 501.771 28 501.089 28H497.43V19.2727H498.771V26.75H501.089C501.62 26.75 502.055 26.6098 502.396 26.3295C502.737 26.0492 502.908 25.6894 502.908 25.25C502.908 24.7879 502.737 24.411 502.396 24.1193C502.055 23.8277 501.62 23.6818 501.089 23.6818H498.589V22.4318Z" fill="#101010" fill-opacity="0.2"/>
<path d="M524.438 14.3125H524.25C524.353 14.3125 524.438 14.2281 524.438 14.125V14.3125H531.562V14.125C531.562 14.2281 531.647 14.3125 531.75 14.3125H531.562V16H533.25V14.125C533.25 13.2977 532.577 12.625 531.75 12.625H524.25C523.423 12.625 522.75 13.2977 522.75 14.125V16H524.438V14.3125ZM536.25 16H519.75C519.335 16 519 16.3352 519 16.75V17.5C519 17.6031 519.084 17.6875 519.188 17.6875H520.603L521.182 29.9453C521.22 30.7445 521.88 31.375 522.68 31.375H533.32C534.122 31.375 534.78 30.7469 534.818 29.9453L535.397 17.6875H536.812C536.916 17.6875 537 17.6031 537 17.5V16.75C537 16.3352 536.665 16 536.25 16ZM533.14 29.6875H522.86L522.293 17.6875H533.707L533.14 29.6875Z" fill="#FF5840"/>
</svg>
